Coordinates
version=1
nRows=14
nColumns=40
inDegrees=yes

Units are S.I. units (second, meters, Newtons, ...)
Angles are in degrees.

endheader
time	pelvis_tilt	pelvis_list	pelvis_rotation	pelvis_tx	pelvis_ty	pelvis_tz	hip_flexion_r	hip_adduction_r	hip_rotation_r	knee_angle_r	knee_angle_r_beta	ankle_angle_r	subtalar_angle_r	mtp_angle_r	hip_flexion_l	hip_adduction_l	hip_rotation_l	knee_angle_l	knee_angle_l_beta	ankle_angle_l	subtalar_angle_l	mtp_angle_l	lumbar_extension	lumbar_bending	lumbar_rotation	arm_flex_r	arm_add_r	arm_rot_r	elbow_flex_r	pro_sup_r	wrist_flex_r	wrist_dev_r	arm_flex_l	arm_add_l	arm_rot_l	elbow_flex_l	pro_sup_l	wrist_flex_l	wrist_dev_l
     54.76000000	     -6.09643057	     -5.05479170	     -0.11304376	      1.07352247	      0.92533385	      0.50234865	     21.05049475	      2.79183037	    -13.58989985	     15.40958124	     15.40958124	      2.76245816	      0.69802305	     -3.55940258	     12.10776809	    -10.67883116	     -4.17828320	     43.78488765	     43.78488765	     10.55477376	    -16.43207840	     -5.91148156	    -10.80278214	      6.87065956	      1.44812798	     -3.63104998	    -13.60002199	     -0.47049997	     27.32032528	     45.73818855	      0.00000000	      0.00000000	     18.00282913	    -18.69465357	      5.52755056	     84.29793225	     47.77642218	      0.00000000	      0.00000000
     54.77200000	     -6.01183121	     -5.22223523	      0.02652057	      1.07332510	      0.92615499	      0.50404585	     20.23382697	      3.08340737	    -13.91775837	     14.97533432	     14.97533432	      3.01921194	      1.14381092	     -3.69351405	     14.14718900	    -11.11846762	     -3.21119671	     47.75776497	     47.75776497	      8.87758673	    -17.16921000	     -5.44800874	    -11.03744714	      7.03413305	      1.69049653	     -1.51267116	    -13.69104202	     -0.41942615	     28.17725921	     45.72054305	      0.00000000	      0.00000000	     16.86219387	    -18.07309190	      5.91263989	     82.73806516	     47.71826602	      0.00000000	      0.00000000
     54.78400000	     -5.94820214	     -5.15089918	      0.16100794	      1.07313924	      0.92700507	      0.50527738	     19.40626350	      3.01865760	    -14.63330282	     14.52237749	     14.52237749	      3.18670342	      2.40732340	     -4.45186821	     16.30407985	    -11.04054654	     -2.03011547	     51.76091693	     51.76091693	      8.70397115	    -17.37775746	     -1.05905782	    -11.03640531	      7.03029561	      1.98963094	      0.42453893	    -13.92854679	      0.43363638	     29.13370917	     45.65838833	      0.00000000	      0.00000000	     16.59750632	    -16.68987020	      5.57625437	     77.75749001	     47.65677933	      0.00000000	      0.00000000
     54.79600000	     -5.84754660	     -5.12598440	      0.20263481	      1.07282757	      0.92778573	      0.50662885	     18.58560980	      3.09770550	    -14.90512045	     14.11167081	     14.11167081	      3.37667468	      3.04742509	     -4.84359546	     18.40288843	    -11.01510530	     -1.02226562	     55.48878568	     55.48878568	      8.82051624	    -17.29788436	      3.33637202	    -11.20012402	      7.00008811	      2.32036351	      2.31025377	    -14.29651890	      1.56722036	     30.79852348	     45.57125934	      0.00000000	      0.00000000	     15.80348392	    -16.09661460	      6.33189686	     74.81647612	     47.55222152	      0.00000000	      0.00000000
     54.80800000	     -5.71838378	     -5.08592580	      0.19973340	      1.07242930	      0.92855228	      0.50789826	     17.78383471	      3.12140166	    -15.32669677	     13.81578353	     13.81578353	      3.68421191	      4.02923964	     -5.07289788	     20.30848850	    -10.99498007	     -0.23503373	     58.60764842	     58.60764842	      8.23301341	    -17.47184886	      5.12988025	    -11.36994098	      6.95823715	      2.63361584	      4.51027632	    -14.53488965	      2.10657186	     31.79192801	     45.54020330	      0.00000000	      0.00000000	     15.07775812	    -15.19748564	      6.37622520	     71.33308243	     47.48280904	      0.00000000	      0.00000000
     54.82000000	     -5.56513789	     -5.02989849	      0.16636859	      1.07185704	      0.92935086	      0.50920651	     16.98625188	      3.15827070	    -15.55993724	     13.53533129	     13.53533129	      3.99507502	      4.77110435	     -5.18851614	     22.09208237	    -10.97277224	      0.39361960	     61.23193576	     61.23193576	      7.62183542	    -17.64223256	      5.90791744	    -11.63721677	      6.89442371	      2.71213140	      6.98453301	    -14.59455348	      2.26535044	     32.87549719	     45.51466179	      0.00000000	      0.00000000	     13.98313967	    -14.73333465	      6.62290335	     68.48783355	     47.40896138	      0.00000000	      0.00000000
     54.83200000	     -5.43291726	     -5.07453766	      0.08396607	      1.07101630	      0.92994200	      0.51062996	     16.30166625	      3.33107788	    -15.58846784	     13.37946580	     13.37946580	      4.32383110	      5.11267523	     -5.26236244	     23.87338815	    -11.10930774	      0.90587289	     63.46091560	     63.46091560	      7.13324141	    -17.80765044	      6.03271167	    -11.93233980	      6.84877544	      3.25594713	      9.31879522	    -14.80331018	      2.24347027	     33.80543447	     45.49911793	      0.00000000	      0.00000000	     12.77065636	    -14.13284401	      6.98432920	     66.98845742	     47.34701255	      0.00000000	      0.00000000
     54.84400000	     -5.36722799	     -5.10791844	      0.15769101	      1.06995935	      0.93050934	      0.51174791	     15.63869000	      3.40799705	    -16.08632260	     13.13466216	     13.13466216	      4.69907552	      6.08749368	     -5.19632667	     25.78759755	    -11.10221011	      1.54706472	     65.36516112	     65.36516112	      7.53601908	    -17.77234237	      7.80362077	    -11.93882008	      6.86610540	      3.34539731	     11.75210270	    -14.88364850	      3.00738819	     34.77242447	     45.44663584	      0.00000000	      0.00000000	     12.75766036	    -13.10208811	      6.70344385	     60.78525278	     47.26172784	      0.00000000	      0.00000000
     54.85600000	     -5.44737308	     -5.25632721	      0.21297098	      1.06849119	      0.93072960	      0.51301024	     15.20429819	      3.67437530	    -16.15760779	     12.93302936	     12.93302936	      5.10053773	      6.31318695	     -4.84658504	     27.85840983	    -11.28882483	      2.08637751	     66.82586170	     66.82586170	      7.97057627	    -17.73020864	      8.98298263	    -11.91332778	      6.95895002	      3.78556040	     13.92513999	    -15.21102515	      3.78350081	     36.15931580	     45.38337736	      0.00000000	      0.00000000	     12.33270417	    -12.19921401	      6.75737097	     56.80274497	     47.17207132	      0.00000000	      0.00000000
     54.86800000	     -5.49353160	     -5.43081627	      0.33616897	      1.06688078	      0.93089332	      0.51421458	     14.72883265	      3.97579664	    -16.23189291	     12.68776697	     12.68776697	      5.40777736	      6.39590507	     -4.75983053	     29.80310606	    -11.51512085	      2.55665494	     67.71086700	     67.71086700	      8.11970254	    -17.82728534	      9.04189523	    -11.96831497	      7.04835343	      3.62523866	     16.53689442	    -15.09595857	      3.91036969	     37.52268093	     45.34765179	      0.00000000	      0.00000000	     11.07857587	    -11.99445038	      6.99431867	     54.37878327	     47.10084647	      0.00000000	      0.00000000
     54.88000000	     -5.58398407	     -5.63946156	      0.51097438	      1.06505614	      0.93099386	      0.51527881	     14.33449507	      4.30676524	    -16.27455216	     12.46914056	     12.46914056	      5.78536517	      6.33677196	     -4.41681979	     31.75321694	    -11.74460803	      3.00840227	     68.11688628	     68.11688628	      8.55847727	    -17.91263009	      9.65878164	    -11.94234922	      7.21946808	      3.91893246	     18.84426353	    -15.41904272	      4.91690338	     38.85811170	     45.27873050	      0.00000000	      0.00000000	     10.85463001	    -11.05134019	      6.68417155	     49.70699942	     47.03611741	      0.00000000	      0.00000000
     54.89200000	     -5.69439101	     -5.86593064	      0.76691152	      1.06318815	      0.93095387	      0.51620166	     13.94297059	      4.64969344	    -16.35374981	     12.19559193	     12.19559193	      6.07058470	      6.21071164	     -4.36623318	     33.62732601	    -11.96235026	      3.43555653	     67.98427536	     67.98427536	      8.79355188	    -18.05368788	      9.72676304	    -11.92843856	      7.38674085	      3.62933555	     21.40942701	    -15.21558689	      4.94659578	     40.33831738	     45.24192434	      0.00000000	      0.00000000	      9.45675526	    -10.95032709	      6.88041246	     47.75603033	     46.97388049	      0.00000000	      0.00000000
     54.90400000	     -5.77964291	     -6.01912257	      1.02305523	      1.06135123	      0.93103905	      0.51692973	     13.50849203	      4.93826253	    -16.25685056	     11.88465742	     11.88465742	      6.35672680	      5.82031273	     -4.14065719	     35.30300060	    -12.08820705	      3.70886326	     67.31066103	     67.31066103	      9.26778066	    -18.16852276	     10.52418748	    -11.88576861	      7.48411992	      3.73843165	     23.67577877	    -15.55524034	      6.09533065	     42.03371967	     45.15412758	      0.00000000	      0.00000000	      9.23980453	    -10.11184768	      6.46095044	     42.99296540	     46.93058092	      0.00000000	      0.00000000
     54.91600000	     -5.85996297	     -6.12014797	      1.33561363	      1.05959613	      0.93099552	      0.51736641	     13.04973582	      5.13229793	    -16.27678534	     11.56405622	     11.56405622	      6.69185595	      5.64574995	     -4.14762283	     36.81325031	    -12.09430767	      3.92827441	     66.13969052	     66.13969052	      9.50233547	    -18.34055342	     10.77436425	    -11.87946268	      7.53679552	      3.30470485	     26.16203246	    -15.28470632	      6.12360191	     43.74540090	     45.10916050	      0.00000000	      0.00000000	      7.78012216	    -10.03747523	      6.57450057	     41.18575379	     46.87529366	      0.00000000	      0.00000000
